<?xml version="1.0"?>
<svg xmlns="http://www.w3.org/2000/svg" xmlns:xlink="http://www.w3.org/1999/xlink" viewBox="0 0 664.68 301.02" width="300" height="200"><defs><style>.cls-1{fill:#fff;}.cls-2{fill:url(#&#x411;&#x435;&#x437;&#x44B;&#x43C;&#x44F;&#x43D;&#x43D;&#x44B;&#x439;_&#x433;&#x440;&#x430;&#x434;&#x438;&#x435;&#x43D;&#x442;_6);}.cls-3{fill:#a534b5;}.cls-4{fill:url(#&#x411;&#x435;&#x437;&#x44B;&#x43C;&#x44F;&#x43D;&#x43D;&#x44B;&#x439;_&#x433;&#x440;&#x430;&#x434;&#x438;&#x435;&#x43D;&#x442;_6-11);}</style><linearGradient id="&#x411;&#x435;&#x437;&#x44B;&#x43C;&#x44F;&#x43D;&#x43D;&#x44B;&#x439;_&#x433;&#x440;&#x430;&#x434;&#x438;&#x435;&#x43D;&#x442;_6" y1="118.89" x2="603.13" y2="118.89" gradientUnits="userSpaceOnUse"><stop offset="0" stop-color="#4c49f2"/><stop offset="1" stop-color="#33299c"/></linearGradient><linearGradient id="&#x411;&#x435;&#x437;&#x44B;&#x43C;&#x44F;&#x43D;&#x43D;&#x44B;&#x439;_&#x433;&#x440;&#x430;&#x434;&#x438;&#x435;&#x43D;&#x442;_6-11" x1="611.87" y1="205.59" x2="643.66" y2="205.59" xlink:href="#&#x411;&#x435;&#x437;&#x44B;&#x43C;&#x44F;&#x43D;&#x43D;&#x44B;&#x439;_&#x433;&#x440;&#x430;&#x434;&#x438;&#x435;&#x43D;&#x442;_6"/></defs><title>Crash Games logo</title><g id="&#x421;&#x43B;&#x43E;&#x439;_2" data-name="&#x421;&#x43B;&#x43E;&#x439; 2"><g id="&#x421;&#x43B;&#x43E;&#x439;_1-2" data-name="&#x421;&#x43B;&#x43E;&#x439; 1"><path class="cls-1" d="M163.09,104.44V77.26q-11.3,8.55-28.09,8.55-14,0-23.36-8.4t-9.16-21.83q0-13.13,9-21.68t22.45-8.55a50.77,50.77,0,0,1,27.33,7.79v-27A61.58,61.58,0,0,0,133.62,0Q108,0,91,15.57q-16.8,15.57-16.8,40t16.95,40q16.95,15.57,42.6,15.57A63.41,63.41,0,0,0,163.09,104.44Z"/><path class="cls-1" d="M280.5,109,248.13,65.2A32.32,32.32,0,0,0,263.4,53.44a31.39,31.39,0,0,0,5.5-18.32q0-14.5-10.54-23.67-10.23-9.31-27.94-9.31H180.19V109h27.48V68.25h11L248.9,109ZM237.83,43.13q-3.28,2.67-8.93,2.67H207.67V25.35h21.22q5.65,0,8.93,2.83a9.47,9.47,0,0,1,3.28,7.56A9,9,0,0,1,237.83,43.13Z"/><path class="cls-1" d="M360.51,86.42l9,22.6H399L354.1,1.53H327.68L282.79,109h29l9-22.6ZM340.66,35.88l11.15,28.55H329.51Z"/><path class="cls-1" d="M483.42,55.43q-8.86-7.63-24.12-12.67-2-.61-7.48-2.14t-7.18-2.14l-4.89-1.68q-4.43-1.83-4.43-4.89,0-7,14-7a65.47,65.47,0,0,1,18.93,3.05,70.36,70.36,0,0,1,16.95,7.33V8.86A75.86,75.86,0,0,0,449.07,0Q429.52,0,418.3,8.4T407.08,32.06a33.55,33.55,0,0,0,3.82,15.73q2.14,3.66,10.38,9.77a38.11,38.11,0,0,0,7,3.36l7,2.75L443.11,66l9.62,2.9q6,2,6.87,2.75,4.12,2.9,4.12,6.26,0,8.4-16.34,8.4a62.77,62.77,0,0,1-22-4.28q-11.91-4.43-18.32-10.38V99.71q16.64,11.45,41.38,11.45,19.39,0,31.45-9.31,12.21-9.47,12.21-25Q492.12,62.91,483.42,55.43Z"/><polygon class="cls-1" points="575.64 2.14 575.64 40.16 535.33 40.16 535.33 2.14 507.85 2.14 507.85 109.02 535.33 109.02 535.33 64.59 575.64 64.59 575.64 109.02 603.13 109.02 603.13 2.14 575.64 2.14"/><path class="cls-1" d="M75.12,208.3q-6.26,5-16.95,5A29.71,29.71,0,0,1,37,205.1q-8.7-8.25-8.7-22.45,0-13.59,9.16-22.14T61.23,152q14.35,0,29.16,8.09v-25.8a65.9,65.9,0,0,0-31.15-7.63q-25.81,0-42.45,15.57Q0,157.76,0,182.19q0,24.28,16.64,40,16.79,15.57,41.53,15.57a70.43,70.43,0,0,0,26.11-4.89q12.06-5,18.48-12.06V173.34H75.12Z"/><path class="cls-1" d="M156,128.14,111.15,235.63h29l9-22.6h39.7l9,22.6h29.47L182.46,128.14ZM157.88,191,169,162.5,180.17,191Z"/><polygon class="cls-1" points="293.46 169.82 266.44 128.75 239.1 128.75 239.1 235.63 266.59 235.63 266.59 170.44 286.29 199.14 301.4 199.14 320.49 170.44 320.49 235.63 347.82 235.63 347.82 128.75 320.64 128.75 293.46 169.82"/><polygon class="cls-1" points="395.76 190.59 438.51 190.59 438.51 167.38 395.76 167.38 395.76 152.88 449.51 152.88 449.51 128.75 368.28 128.75 368.28 235.63 450.73 235.63 450.73 211.51 395.76 211.51 395.76 190.59"/><path class="cls-1" d="M539,182q-8.86-7.63-24.12-12.67-2-.61-7.48-2.14t-7.18-2.14l-4.89-1.68q-4.43-1.83-4.43-4.89,0-7,14-7a65.47,65.47,0,0,1,18.93,3.05,70.36,70.36,0,0,1,16.95,7.33V135.47a75.86,75.86,0,0,0-36.19-8.86q-19.55,0-30.77,8.4t-11.22,23.67a33.55,33.55,0,0,0,3.82,15.73q2.14,3.66,10.38,9.77a38.11,38.11,0,0,0,7,3.36l7,2.75,7.79,2.29,9.62,2.9q6,2,6.87,2.75,4.12,2.9,4.12,6.26,0,8.4-16.34,8.4a62.77,62.77,0,0,1-22-4.28q-11.91-4.43-18.32-10.38v28.09q16.64,11.45,41.38,11.45,19.39,0,31.45-9.31,12.21-9.47,12.21-25Q547.68,189.52,539,182Z"/><path class="cls-2" d="M163.09,104.44V77.26q-11.3,8.55-28.09,8.55-14,0-23.36-8.4t-9.16-21.83q0-13.13,9-21.68t22.45-8.55a50.77,50.77,0,0,1,27.33,7.79v-27A61.58,61.58,0,0,0,133.62,0Q108,0,91,15.57q-16.8,15.57-16.8,40t16.95,40q16.95,15.57,42.6,15.57A63.41,63.41,0,0,0,163.09,104.44Z"/><path class="cls-2" d="M280.5,109,248.13,65.2A32.32,32.32,0,0,0,263.4,53.44a31.39,31.39,0,0,0,5.5-18.32q0-14.5-10.54-23.67-10.23-9.31-27.94-9.31H180.19V109h27.48V68.25h11L248.9,109ZM237.83,43.13q-3.28,2.67-8.93,2.67H207.67V25.35h21.22q5.65,0,8.93,2.83a9.47,9.47,0,0,1,3.28,7.56A9,9,0,0,1,237.83,43.13Z"/><path class="cls-2" d="M360.51,86.42l9,22.6H399L354.1,1.53H327.68L282.79,109h29l9-22.6ZM340.66,35.88l11.15,28.55H329.51Z"/><path class="cls-2" d="M483.42,55.43q-8.86-7.63-24.12-12.67-2-.61-7.48-2.14t-7.18-2.14l-4.89-1.68q-4.43-1.83-4.43-4.89,0-7,14-7a65.47,65.47,0,0,1,18.93,3.05,70.36,70.36,0,0,1,16.95,7.33V8.86A75.86,75.86,0,0,0,449.07,0Q429.52,0,418.3,8.4T407.08,32.06a33.55,33.55,0,0,0,3.82,15.73q2.14,3.66,10.38,9.77a38.11,38.11,0,0,0,7,3.36l7,2.75L443.11,66l9.62,2.9q6,2,6.87,2.75,4.12,2.9,4.12,6.26,0,8.4-16.34,8.4a62.77,62.77,0,0,1-22-4.28q-11.91-4.43-18.32-10.38V99.71q16.64,11.45,41.38,11.45,19.39,0,31.45-9.31,12.21-9.47,12.21-25Q492.12,62.91,483.42,55.43Z"/><polygon class="cls-2" points="575.64 2.14 575.64 40.16 535.33 40.16 535.33 2.14 507.85 2.14 507.85 109.02 535.33 109.02 535.33 64.59 575.64 64.59 575.64 109.02 603.13 109.02 603.13 2.14 575.64 2.14"/><path class="cls-2" d="M75.12,208.3q-6.26,5-16.95,5A29.71,29.71,0,0,1,37,205.1q-8.7-8.25-8.7-22.45,0-13.59,9.16-22.14T61.23,152q14.35,0,29.16,8.09v-25.8a65.9,65.9,0,0,0-31.15-7.63q-25.81,0-42.45,15.57Q0,157.76,0,182.19q0,24.28,16.64,40,16.79,15.57,41.53,15.57a70.43,70.43,0,0,0,26.11-4.89q12.06-5,18.48-12.06V173.34H75.12Z"/><path class="cls-2" d="M156,128.14,111.15,235.63h29l9-22.6h39.7l9,22.6h29.47L182.46,128.14ZM157.88,191,169,162.5,180.17,191Z"/><polygon class="cls-2" points="293.46 169.82 266.44 128.75 239.1 128.75 239.1 235.63 266.59 235.63 266.59 170.44 286.29 199.14 301.4 199.14 320.49 170.44 320.49 235.63 347.82 235.63 347.82 128.75 320.64 128.75 293.46 169.82"/><polygon class="cls-2" points="395.76 190.59 438.51 190.59 438.51 167.38 395.76 167.38 395.76 152.88 449.51 152.88 449.51 128.75 368.28 128.75 368.28 235.63 450.73 235.63 450.73 211.51 395.76 211.51 395.76 190.59"/><path class="cls-2" d="M539,182q-8.86-7.63-24.12-12.67-2-.61-7.48-2.14t-7.18-2.14l-4.89-1.68q-4.43-1.83-4.43-4.89,0-7,14-7a65.47,65.47,0,0,1,18.93,3.05,70.36,70.36,0,0,1,16.95,7.33V135.47a75.86,75.86,0,0,0-36.19-8.86q-19.55,0-30.77,8.4t-11.22,23.67a33.55,33.55,0,0,0,3.82,15.73q2.14,3.66,10.38,9.77a38.11,38.11,0,0,0,7,3.36l7,2.75,7.79,2.29,9.62,2.9q6,2,6.87,2.75,4.12,2.9,4.12,6.26,0,8.4-16.34,8.4a62.77,62.77,0,0,1-22-4.28q-11.91-4.43-18.32-10.38v28.09q16.64,11.45,41.38,11.45,19.39,0,31.45-9.31,12.21-9.47,12.21-25Q547.68,189.52,539,182Z"/><circle class="cls-3" cx="627.76" cy="205.59" r="35.6"/><path class="cls-3" d="M490.44,301V276c82.29,0,149.23-66.95,149.23-149.23V2.44h25V126.79C664.68,222.86,586.52,301,490.44,301Z"/><circle class="cls-4" cx="627.76" cy="205.59" r="15.9"/></g></g></svg>
